<?xml version="1.0" encoding="UTF-8"?><svg id="Layer_1" xmlns="http://www.w3.org/2000/svg" xmlns:xlink="http://www.w3.org/1999/xlink" viewBox="0 0 298.31 45.16"><defs><style>.cls-1{fill:#a6a6a6;}.cls-1,.cls-2,.cls-3,.cls-4,.cls-5,.cls-6,.cls-7,.cls-8,.cls-9,.cls-10{stroke-width:0px;}.cls-2{opacity:.25;}.cls-2,.cls-4,.cls-10{isolation:isolate;}.cls-2,.cls-9,.cls-11{fill:#fff;}.cls-3{fill:url(#linear-gradient);}.cls-4{opacity:.12;}.cls-4,.cls-5,.cls-10{fill:#000;}.cls-6{fill:url(#linear-gradient-4);}.cls-7{fill:url(#linear-gradient-2);}.cls-8{fill:url(#linear-gradient-3);}.cls-11{stroke:#fff;stroke-miterlimit:10;stroke-width:.22px;}.cls-10{opacity:.2;}</style><linearGradient id="linear-gradient" x1="24.35" y1="128.21" x2="5.61" y2="146.96" gradientTransform="translate(0 -118)" gradientUnits="userSpaceOnUse"><stop offset="0" stop-color="#00a0ff"/><stop offset="0" stop-color="#00a1ff"/><stop offset=".26" stop-color="#00beff"/><stop offset=".51" stop-color="#00d2ff"/><stop offset=".76" stop-color="#00dfff"/><stop offset="1" stop-color="#00e3ff"/></linearGradient><linearGradient id="linear-gradient-2" x1="37.79" y1="140.82" x2="10.76" y2="140.82" gradientTransform="translate(0 -118)" gradientUnits="userSpaceOnUse"><stop offset="0" stop-color="#ffe000"/><stop offset=".41" stop-color="#ffbd00"/><stop offset=".78" stop-color="orange"/><stop offset="1" stop-color="#ff9c00"/></linearGradient><linearGradient id="linear-gradient-3" x1="27.73" y1="143.38" x2="2.31" y2="168.8" gradientTransform="translate(0 -118)" gradientUnits="userSpaceOnUse"><stop offset="0" stop-color="#ff3a44"/><stop offset="1" stop-color="#c31162"/></linearGradient><linearGradient id="linear-gradient-4" x1="8.15" y1="118.68" x2="19.5" y2="130.03" gradientTransform="translate(0 -118)" gradientUnits="userSpaceOnUse"><stop offset="0" stop-color="#32a071"/><stop offset=".07" stop-color="#2da771"/><stop offset=".48" stop-color="#15cf74"/><stop offset=".8" stop-color="#06e775"/><stop offset="1" stop-color="#00f076"/></linearGradient></defs><path class="cls-5" d="M145.2,45.16H5.58c-3.07,0-5.58-2.51-5.58-5.58V6.07C0,2.99,2.51.48,5.58.48h139.62c3.07,0,5.58,2.51,5.58,5.58v33.51c0,3.07-2.51,5.58-5.58,5.58Z"/><path class="cls-1" d="M145.2,1.37c2.59,0,4.69,2.1,4.69,4.69v33.51c0,2.59-2.1,4.69-4.69,4.69H5.58c-2.59,0-4.69-2.1-4.69-4.69h0V6.07C.89,3.47,2.99,1.37,5.58,1.37t0,0h139.62M145.2.48H5.58C2.51.48,0,2.99,0,6.07v33.51c0,3.07,2.51,5.58,5.58,5.58h139.62c3.07,0,5.58-2.51,5.58-5.58V6.07c0-3.07-2.51-5.58-5.58-5.58Z"/><path class="cls-11" d="M52.97,11.92c0,.94-.28,1.69-.84,2.23-.63.66-1.45.99-2.46.99s-1.79-.34-2.47-1.01c-.68-.67-1.02-1.51-1.02-2.49s.34-1.82,1.02-2.49,1.5-1.01,2.47-1.01c.48,0,.94.09,1.37.28s.78.44,1.05.75l-.59.59c-.45-.52-1.05-.79-1.83-.79-.7,0-1.32.25-1.83.75-.51.49-.77,1.14-.77,1.93s.26,1.44.77,1.93,1.13.75,1.83.75c.75,0,1.37-.25,1.88-.75.32-.32.51-.78.56-1.36h-2.43v-.82h3.25c.02.18.04.35.04.5ZM58.11,9.13h-3.05v2.12h2.75v.8h-2.75v2.12h3.05v.83h-3.91v-6.7h3.91v.83ZM61.75,15h-.86v-5.88h-1.88v-.83h4.6v.83h-1.88v5.88h.01ZM66.95,15v-6.7h.86v6.7h-.86ZM71.63,15h-.86v-5.88h-1.88v-.83h4.6v.83h-1.88v5.88h.01ZM82.22,14.13c-.66.68-1.47,1.02-2.46,1.02s-1.8-.34-2.46-1.02-.98-1.51-.98-2.48.32-1.81.98-2.48c.66-.68,1.47-1.02,2.46-1.02s1.79.34,2.46,1.02c.66.68.99,1.51.99,2.48-.01.98-.34,1.81-.99,2.48ZM77.94,13.57c.49.5,1.11.75,1.82.75s1.33-.25,1.82-.75c.49-.5.75-1.14.75-1.92s-.25-1.42-.75-1.92c-.49-.5-1.11-.76-1.82-.76s-1.33.25-1.82.75c-.49.51-.75,1.15-.75,1.93s.26,1.42.75,1.92ZM84.42,15v-6.7h1.05l3.26,5.22h.03l-.03-1.3v-3.92h.86v6.7h-.89l-3.41-5.46h-.03l.03,1.3v4.17s-.87,0-.87,0Z"/><path class="cls-9" d="M76.11,24.77c-2.62,0-4.77,2-4.77,4.75s2.14,4.75,4.77,4.75,4.77-2.01,4.77-4.75-2.14-4.75-4.77-4.75ZM76.11,32.4c-1.44,0-2.68-1.18-2.68-2.88s1.24-2.88,2.68-2.88,2.68,1.17,2.68,2.88-1.25,2.88-2.68,2.88ZM65.7,24.77c-2.62,0-4.77,2-4.77,4.75s2.14,4.75,4.77,4.75,4.77-2.01,4.77-4.75-2.14-4.75-4.77-4.75ZM65.7,32.4c-1.44,0-2.68-1.18-2.68-2.88s1.24-2.88,2.68-2.88,2.68,1.17,2.68,2.88-1.24,2.88-2.68,2.88ZM53.32,26.24v2.01h4.83c-.15,1.13-.52,1.97-1.09,2.54-.7.7-1.8,1.47-3.72,1.47-2.97,0-5.29-2.39-5.29-5.36s2.32-5.36,5.29-5.36c1.6,0,2.77.63,3.63,1.44l1.42-1.42c-1.21-1.15-2.8-2.03-5.06-2.03-4.07,0-7.48,3.31-7.48,7.38s3.42,7.38,7.48,7.38c2.2,0,3.85-.71,5.15-2.07,1.33-1.33,1.74-3.21,1.74-4.71,0-.47-.03-.9-.11-1.26h-6.78ZM103.93,27.8c-.39-1.06-1.6-3.03-4.07-3.03s-4.48,1.92-4.48,4.75c0,2.66,2.01,4.75,4.71,4.75,2.18,0,3.44-1.33,3.95-2.1l-1.62-1.08c-.54.79-1.27,1.32-2.33,1.32s-1.82-.48-2.3-1.44l6.36-2.62-.22-.54h0ZM97.45,29.39c-.06-1.83,1.42-2.77,2.48-2.77.83,0,1.53.41,1.76,1.01l-4.24,1.76ZM92.29,33.99h2.09v-13.96h-2.09v13.96ZM88.88,25.84h-.08c-.47-.56-1.36-1.06-2.5-1.06-2.38,0-4.56,2.09-4.56,4.77s2.18,4.74,4.56,4.74c1.13,0,2.03-.5,2.5-1.08h.07v.68c0,1.82-.97,2.79-2.54,2.79-1.27,0-2.07-.92-2.39-1.69l-1.82.76c.52,1.26,1.91,2.8,4.21,2.8,2.45,0,4.51-1.44,4.51-4.95v-8.53h-1.98v.77h.01ZM86.47,32.4c-1.44,0-2.65-1.21-2.65-2.86s1.21-2.89,2.65-2.89,2.54,1.23,2.54,2.89c.01,1.65-1.11,2.86-2.54,2.86ZM113.72,20.03h-4.99v13.96h2.09v-5.29h2.92c2.31,0,4.58-1.68,4.58-4.33s-2.29-4.33-4.59-4.33ZM113.76,26.75h-2.96v-4.79h2.96c1.56,0,2.45,1.3,2.45,2.39s-.88,2.4-2.45,2.4ZM126.65,24.75c-1.51,0-3.07.67-3.72,2.13l1.85.77c.39-.77,1.13-1.03,1.9-1.03,1.08,0,2.18.65,2.19,1.8v.15c-.38-.21-1.18-.54-2.18-.54-2,0-4.02,1.09-4.02,3.14,0,1.87,1.63,3.07,3.46,3.07,1.4,0,2.18-.63,2.66-1.36h.07v1.08h2.01v-5.35c.01-2.48-1.84-3.86-4.22-3.86ZM126.39,32.4c-.68,0-1.63-.35-1.63-1.18,0-1.07,1.18-1.49,2.21-1.49.92,0,1.35.2,1.9.47-.16,1.25-1.22,2.19-2.48,2.2ZM138.21,25.05l-2.39,6.05h-.07l-2.48-6.05h-2.25l3.72,8.47-2.12,4.7h2.18l5.73-13.17h-2.32ZM119.45,33.99h2.09v-13.96h-2.09v13.96Z"/><path class="cls-3" d="M11.66,8.9c-.32.35-.51.88-.51,1.56v24.71c0,.69.19,1.23.51,1.56l.08.08,13.84-13.83v-.34l-13.84-13.83s-.08.08-.08.08Z"/><path class="cls-7" d="M30.19,27.6l-4.61-4.61v-.34l4.61-4.61.1.06,5.46,3.11c1.56.88,1.56,2.33,0,3.23l-5.46,3.11s-.1.07-.1.07Z"/><path class="cls-8" d="M30.29,27.53l-4.71-4.71-13.92,13.92c.51.55,1.36.61,2.32.07l16.31-9.27"/><path class="cls-6" d="M30.29,18.11L13.97,8.84c-.96-.55-1.81-.48-2.32.07l13.93,13.92s4.71-4.71,4.71-4.71Z"/><path class="cls-10" d="M30.19,27.43l-16.22,9.21c-.9.51-1.72.48-2.23.01l-.08.08.08.08c.52.47,1.33.5,2.23-.01l16.32-9.27s-.1-.1-.1-.1Z"/><path class="cls-4" d="M11.66,36.58c-.32-.35-.51-.88-.51-1.56v.17c0,.69.19,1.23.51,1.56l.08-.08-.08-.09ZM35.75,24.27l-5.57,3.16.1.1,5.46-3.11c.78-.45,1.17-1.03,1.17-1.61-.06.52-.45,1.05-1.16,1.45Z"/><path class="cls-2" d="M13.97,8.99l21.78,12.38c.7.4,1.11.92,1.17,1.45,0-.58-.39-1.17-1.17-1.61L13.97,8.84c-1.56-.88-2.84-.15-2.84,1.64v.17c0-1.8,1.28-2.54,2.84-1.65Z"/><path class="cls-1" d="M287.57,0h-114.81c-.34,0-.68,0-1.04.02-.76,0-1.51.07-2.26.2-.75.13-1.48.36-2.15.7-.68.35-1.29.8-1.83,1.33-.53.53-.98,1.15-1.32,1.83-.34.68-.59,1.41-.71,2.15-.13.75-.19,1.5-.2,2.26,0,.34,0,.69-.02,1.04v26.09c0,.35,0,.69.02,1.04,0,.76.08,1.51.2,2.26.13.75.36,1.48.7,2.15s.79,1.29,1.33,1.82c.53.54,1.15.99,1.83,1.33s1.4.59,2.14.71,1.5.19,2.26.2c.35,0,.69,0,1.04,0h116.03c.34,0,.69,0,1.04,0,.76,0,1.51-.07,2.26-.2s1.48-.37,2.15-.71,1.29-.79,1.83-1.33c.54-.53.99-1.15,1.33-1.82.34-.68.58-1.41.7-2.15.13-.75.2-1.5.21-2.26v-1.04c0-.41,0-.82,0-1.23V10.77c0-.41,0-.82,0-1.23v-1.04c-.02-.76-.08-1.51-.21-2.26-.13-.75-.36-1.47-.7-2.15-.69-1.36-1.8-2.47-3.16-3.16-.68-.34-1.4-.58-2.15-.71-.75-.13-1.5-.19-2.26-.2-.34,0-.69,0-1.04-.02-.4,0-.8,0-1.21,0Z"/><path class="cls-5" d="M172.76,44.18c-.34,0-.68,0-1.02,0-.7,0-1.41-.07-2.11-.18-.65-.11-1.28-.32-1.87-.62-.58-.3-1.11-.68-1.58-1.14-.47-.46-.86-.99-1.15-1.58-.3-.59-.5-1.22-.61-1.87-.12-.7-.18-1.41-.19-2.12,0-.23-.02-1.03-.02-1.03V9.54s0-.78.02-1.01c0-.71.07-1.41.19-2.12.11-.66.32-1.29.61-1.87.3-.59.68-1.12,1.14-1.58.46-.47.99-.86,1.58-1.15.59-.3,1.22-.5,1.86-.61.7-.12,1.41-.18,2.12-.19l1.02-.02h116.03l1.03.02c.7,0,1.41.07,2.1.18.66.11,1.29.32,1.88.62,1.17.6,2.13,1.56,2.73,2.73.3.59.5,1.22.6,1.86.12.7.18,1.41.2,2.13v1.01c0,.42,0,.83,0,1.23v23.62c0,.41,0,.81,0,1.22v1.05c0,.7-.08,1.41-.19,2.09-.11.66-.32,1.29-.61,1.88-.3.58-.68,1.11-1.14,1.57-.46.47-.99.86-1.58,1.15-.59.3-1.22.51-1.88.62-.69.12-1.41.17-2.11.18-.33,0-.68,0-1.01,0,0,0-116.04,0-116.04,0Z"/><g id="_Group_"><g id="_Group_2"><g id="_Group_3"><path id="_Path_" class="cls-9" d="M191.19,22.92c.02-1.91,1.03-3.68,2.66-4.68-1.04-1.48-2.7-2.38-4.5-2.43-1.89-.2-3.74,1.13-4.7,1.13s-2.47-1.12-4.07-1.08c-2.11.07-4.03,1.24-5.05,3.08-2.18,3.78-.56,9.34,1.54,12.39,1.04,1.5,2.27,3.17,3.87,3.11,1.57-.06,2.15-1,4.04-1s2.42,1,4.05.96c1.68-.03,2.74-1.5,3.75-3.02.75-1.06,1.33-2.24,1.71-3.49-2-.84-3.3-2.8-3.3-4.97Z"/><path id="_Path_2" class="cls-9" d="M188.1,13.79c.92-1.1,1.37-2.52,1.26-3.94-1.4.14-2.69.82-3.62,1.87-.92,1.04-1.38,2.41-1.29,3.79,1.41.03,2.76-.61,3.65-1.72Z"/></g></g><path class="cls-9" d="M210.99,30.65h-5.34l-1.28,3.79h-2.26l5.06-14.02h2.35l5.06,14.02h-2.31l-1.29-3.79ZM206.19,28.9h4.23l-2.09-6.15h-.05l-2.09,6.15ZM225.5,29.32c0,3.18-1.7,5.21-4.27,5.21-1.33.07-2.58-.63-3.22-1.79h-.05v5.06h-2.1v-13.6h2.04v1.7h.04c.67-1.15,1.92-1.85,3.25-1.81,2.6,0,4.31,2.05,4.31,5.22ZM223.34,29.32c0-2.07-1.07-3.43-2.7-3.43s-2.68,1.39-2.68,3.43,1.08,3.44,2.68,3.44,2.7-1.35,2.7-3.44ZM236.74,29.32c0,3.18-1.7,5.21-4.27,5.21-1.33.07-2.58-.63-3.22-1.79h-.05v5.06h-2.1v-13.6h2.03v1.7h.04c.67-1.15,1.92-1.85,3.25-1.81,2.61,0,4.31,2.05,4.31,5.22ZM234.59,29.32c0-2.07-1.07-3.43-2.7-3.43s-2.68,1.39-2.68,3.43,1.08,3.44,2.68,3.44,2.7-1.35,2.7-3.44ZM244.18,30.53c.15,1.39,1.5,2.31,3.35,2.31s3.04-.91,3.04-2.17c0-1.09-.77-1.74-2.58-2.19l-1.82-.44c-2.58-.62-3.77-1.83-3.77-3.78,0-2.42,2.11-4.08,5.1-4.08s4.99,1.66,5.06,4.08h-2.12c-.13-1.4-1.28-2.24-2.97-2.24s-2.85.86-2.85,2.1c0,.99.74,1.58,2.55,2.02l1.54.38c2.87.68,4.07,1.84,4.07,3.89,0,2.62-2.09,4.27-5.41,4.27-3.11,0-5.21-1.6-5.34-4.14,0,0,2.15,0,2.15,0ZM257.32,21.8v2.42h1.95v1.66h-1.95v5.64c0,.87.39,1.28,1.24,1.28.23,0,.46-.02.69-.05v1.65c-.39.07-.77.11-1.16.1-2.07,0-2.87-.77-2.87-2.76v-5.85h-1.49v-1.66h1.49v-2.42h2.1ZM260.39,29.32c0-3.22,1.89-5.23,4.85-5.23s4.85,2.02,4.85,5.23-1.87,5.23-4.85,5.23c-2.96,0-4.85-2.01-4.85-5.23ZM267.95,29.32c0-2.21-1.01-3.51-2.71-3.51s-2.71,1.31-2.71,3.51,1.01,3.5,2.71,3.5,2.71-1.29,2.71-3.5ZM271.82,24.22h2v1.74h.05c.28-1.12,1.31-1.89,2.46-1.85.24,0,.49.03.72.08v1.96c-.31-.09-.62-.14-.95-.13-1.16-.05-2.15.85-2.2,2.01,0,0,0,0,0,.01,0,.11,0,.22,0,.32v6.06h-2.1s0-10.22,0-10.22ZM286.71,31.43c-.28,1.86-2.09,3.13-4.4,3.13-2.97,0-4.82-1.99-4.82-5.19s1.86-5.29,4.73-5.29,4.6,1.95,4.6,5.04v.72h-7.22v.13c-.13,1.46.95,2.75,2.41,2.89.11,0,.23,0,.33,0,1.02.1,1.98-.49,2.36-1.44h2.01ZM279.62,28.38h5.11c.07-1.35-.96-2.51-2.31-2.59-.06,0-.13,0-.19,0-1.43,0-2.59,1.14-2.6,2.57,0,0,0,0,0,0v.02h0Z"/></g><g id="_Group_4"><path class="cls-9" d="M205.93,9.86c1.64-.12,3.07,1.12,3.19,2.76.02.2,0,.4-.02.59,0,2.15-1.16,3.39-3.17,3.39h-2.44v-6.74h2.44ZM204.55,15.64h1.27c1.17.07,2.17-.82,2.24-1.98,0-.15,0-.29-.02-.44.16-1.17-.66-2.24-1.82-2.4-.13-.02-.27-.02-.4-.02h-1.27v4.84ZM210.28,14.06c-.13-1.33.85-2.5,2.17-2.63,1.33-.13,2.5.85,2.63,2.17.02.15.02.31,0,.46.13,1.32-.84,2.5-2.16,2.63-1.32.13-2.5-.84-2.63-2.16-.03-.15-.03-.31,0-.47ZM214.05,14.06c0-1.1-.5-1.75-1.36-1.75s-1.36.65-1.36,1.75.49,1.75,1.36,1.75,1.36-.65,1.36-1.75ZM221.45,16.6h-1.04l-1.05-3.75h-.08l-1.04,3.75h-1.03l-1.41-5.08h1.02l.91,3.88h.07l1.04-3.88h.96l1.04,3.88h.08l.91-3.88h1l-1.39,5.08ZM224.03,11.52h.96v.81h.07c.26-.59.87-.95,1.51-.91.91-.07,1.7.61,1.77,1.52,0,.13,0,.24,0,.37v3.29h-1v-3.04c0-.82-.35-1.22-1.1-1.22-.64-.03-1.19.47-1.22,1.11,0,.06,0,.12,0,.18v2.97h-1.01s0-5.08,0-5.08ZM229.94,9.53h1v7.07h-1v-7.07ZM232.34,14.06c-.13-1.33.85-2.5,2.17-2.63,1.33-.13,2.5.85,2.63,2.17.02.15.02.31,0,.46.13,1.32-.84,2.5-2.16,2.63-1.32.13-2.5-.84-2.63-2.16h0c-.03-.15-.03-.31,0-.47ZM236.11,14.06c0-1.1-.5-1.75-1.36-1.75s-1.36.65-1.36,1.75.49,1.75,1.36,1.75,1.36-.65,1.36-1.75ZM238.19,15.16c0-.92.68-1.44,1.89-1.52l1.38-.08v-.44c0-.54-.35-.84-1.04-.84-.56,0-.95.21-1.06.57h-.97c.1-.87.93-1.43,2.08-1.43,1.28,0,1.99.63,1.99,1.71v3.48h-.96v-.71h-.07c-.33.52-.91.83-1.53.8-.85.09-1.59-.52-1.68-1.37,0-.05,0-.11,0-.16h0ZM241.46,14.73v-.42l-1.24.08c-.7.05-1.02.29-1.02.73s.4.72.95.72c.66.06,1.24-.41,1.31-1.07,0,0,0-.04,0-.04ZM243.78,14.06c0-1.6.83-2.62,2.11-2.62.65-.03,1.25.32,1.56.89h.07v-2.79h1.01v7.07h-.96v-.8h-.08c-.32.57-.94.91-1.59.88-1.3,0-2.11-1.03-2.11-2.63ZM244.81,14.06c0,1.08.5,1.73,1.36,1.73s1.37-.66,1.37-1.72-.53-1.73-1.37-1.73c-.85,0-1.36.65-1.36,1.72ZM252.68,14.06c-.13-1.33.85-2.5,2.17-2.63,1.33-.13,2.5.85,2.63,2.17.02.15.02.31,0,.46.13,1.32-.84,2.5-2.16,2.63-1.32.13-2.5-.84-2.63-2.16h0c-.03-.15-.03-.31,0-.47ZM256.43,14.06c0-1.1-.5-1.75-1.36-1.75s-1.36.65-1.36,1.75.49,1.75,1.36,1.75,1.36-.65,1.36-1.75ZM258.81,11.52h.96v.81h.07c.26-.59.87-.95,1.51-.91.91-.07,1.7.61,1.77,1.52,0,.13,0,.24,0,.37v3.29h-1v-3.04c0-.82-.35-1.22-1.1-1.22-.64-.03-1.19.47-1.22,1.11,0,.06,0,.12,0,.18v2.97h-1v-5.08h0ZM268.8,10.25v1.29h1.1v.85h-1.1v2.61c0,.53.22.77.72.77.13,0,.25,0,.38-.03v.84c-.18.04-.36.05-.55.05-1.12,0-1.56-.4-1.56-1.37v-2.87h-.81v-.85h.81v-1.29s1.01,0,1.01,0ZM271.28,9.53h.99v2.8h.08c.27-.6.89-.96,1.55-.91.93-.05,1.71.66,1.77,1.59,0,.11,0,.21,0,.32v3.28h-1.01v-3.04c0-.81-.38-1.22-1.09-1.22-.66-.05-1.22.43-1.28,1.09,0,.07,0,.13,0,.2v2.97h-1v-7.07ZM281.5,15.23c-.28.96-1.21,1.58-2.21,1.47-1.27.03-2.33-.97-2.37-2.24,0,0,0,0,0,0,0-.13,0-.25.02-.38-.17-1.29.73-2.47,2.01-2.64.11-.02.22-.02.33-.02,1.41,0,2.27.96,2.27,2.57v.35h-3.59v.05c-.06.74.49,1.39,1.22,1.45.05,0,.08,0,.13,0,.49.06.97-.18,1.21-.61h.98ZM277.97,13.59h2.57c.05-.68-.46-1.26-1.13-1.31h-.12c-.72,0-1.31.57-1.31,1.29,0,0,0,.03,0,.03Z"/></g></svg>