<?xml version="1.0" encoding="UTF-8"?><svg id="Layer_1" xmlns="http://www.w3.org/2000/svg" viewBox="0 0 77.27 104.01"><defs><style>.cls-1{fill:#000;stroke-width:0px;}</style></defs><path class="cls-1" d="M71.69,19.6h-9.57C60.09,8.47,50.34,0,38.63,0S17.17,8.47,15.14,19.6H5.58c-3.08,0-5.58,2.5-5.58,5.58v56.25c0,12.45,10.12,22.57,22.57,22.57h32.13c12.44,0,22.57-10.12,22.57-22.56V25.18c0-3.08-2.5-5.58-5.58-5.58ZM53.33,19.6h-29.4c1.86-6.37,7.74-11.04,14.7-11.04s12.84,4.67,14.7,11.04ZM68.7,28.17v53.27c0,7.72-6.28,14-14,14H22.57c-7.72,0-14-6.28-14-14V28.17h60.13Z"/></svg>