<?xml version="1.0" encoding="UTF-8"?><svg id="Layer_1" xmlns="http://www.w3.org/2000/svg" viewBox="0 0 73.27 100"><defs><style>.cls-1{fill:#000;stroke-width:0px;}</style></defs><path class="cls-1" d="M52.7,100H20.57c-11.34,0-20.57-9.23-20.57-20.57V23.18c0-1.97,1.6-3.58,3.58-3.58h66.11c1.97,0,3.58,1.6,3.58,3.58v56.26c0,11.34-9.23,20.57-20.57,20.57ZM4.57,24.17v55.27c0,8.82,7.18,16,16,16h32.13c8.82,0,16-7.18,16-16V24.17H4.57Z"/><path class="cls-1" d="M58.52,21.88h-4.57c0-9.55-7.77-17.32-17.32-17.32s-17.32,7.77-17.32,17.32h-4.57C14.75,9.82,24.57,0,36.63,0s21.88,9.82,21.88,21.88Z"/></svg>