<?xml version="1.0" encoding="UTF-8"?><svg id="Layer_2" xmlns="http://www.w3.org/2000/svg" viewBox="0 0 103.91 128.7"><defs><style>.cls-1{fill:#f43737;stroke-width:0px;}</style></defs><path class="cls-1" d="M86.41,74.56s0,0,0,0c0-10.04-8.14-18.18-18.18-18.18s-18.18,8.14-18.18,18.18,8.14,18.18,18.18,18.18,18.18-8.14,18.18-18.18c0,0,0,0,0,0ZM53.16,74.56c0-8.31,6.76-15.07,15.07-15.07,3.48,0,6.69,1.19,9.24,3.18-1.09-.32-2.25-.49-3.44-.49-6.84,0-12.38,5.54-12.38,12.38s5.54,12.38,12.38,12.38c1.2,0,2.35-.18,3.44-.49-2.55,1.99-5.76,3.18-9.24,3.18-8.31,0-15.07-6.76-15.07-15.07Z"/><path class="cls-1" d="M93.11,45.06c-.09.05-.18.11-.27.16-.05.03-.11.06-.17.08-.38.2-.77.38-1.17.55-.19.08-.37.15-.56.22-.18.06-.36.12-.54.18-.09.03-.18.05-.26.07,6.67,8.35,10.67,18.93,10.67,30.42,0,26.94-21.92,48.85-48.85,48.85S3.1,103.69,3.1,76.75c0-16.76,8.48-31.56,21.37-40.37-.22-1.12-.37-2.09-.5-3.04-.01-.11-.03-.22-.04-.34C9.55,42.24,0,58.38,0,76.75c0,28.69,23.26,51.95,51.95,51.95s51.95-23.26,51.95-51.95c0-11.93-4.03-22.92-10.79-31.69Z"/><path class="cls-1" d="M28.69,30.37c.05.78.11,1.57.21,2.35.04.31.09.6.13.9.1.68.22,1.35.35,2.01.87,4.43,2.36,8.37,4.41,11.51,1.26,1.93,2.29,3.3,4.12,3.35h.1c1.54,0,2.77-1.09,3.67-2.05.72-.76,1.33-1.56,1.92-2.33.79-1.03,1.53-1.99,2.41-2.74,2.42-2.04,5.16-3.67,8.16-4.85,3.43-1.35,7.19-2.06,10.85-2.06,2.48,0,4.92.32,7.26.95,1.61.43,3.15,1.16,4.77,1.93,1.78.84,3.77,1.75,5.93,2.25.44.1.89.22,1.35.28.51.07,1.03.1,1.54.1.11,0,.22-.01.34-.02,1.27-.04,2.47-.29,3.54-.74.02,0,.04-.02.06-.03.92-.4,1.74-.93,2.42-1.6,1.22-1.21,2.05-2.89,2.33-4.73.62-4-1.44-8.13-5-10.04-1.38-.74-2.88-1.12-4.45-1.12-.74,0-1.5.09-2.26.26l-4.9,1.13,2.8-4.17c1.45-2.15,1.8-4.71.95-6.82-.89-2.21-3.1-3.91-6.04-4.66-1.18-.3-2.4-.45-3.64-.45-3.11,0-6.21.96-8.71,2.71l-4.44,3.1,1.39-5.24c.48-1.8.43-3.43-.14-4.87-.56-1.41-1.93-3.28-5.26-4.2-1.19-.33-2.5-.5-3.87-.5-2.81,0-5.72.68-8.21,1.91-5.48,2.72-8.79,7.58-10.61,11.18-2.61,5.19-3.82,11.22-3.48,17.21,0,.02,0,.05,0,.07Z"/><path class="cls-1" d="M53.46,97.05c-1.03-1.17-2.19-2.23-3.23-3.4-1.86-2.11-3.74-4.21-5.67-6.25-.64-.68-1.38-1.26-2.32-1.26-.13,0-.25.01-.39.03-1.51.25-2.85,1.68-3.92,2.68-1.21,1.13-2.31,2.38-3.29,3.71-1.46,1.99-3.04,4.6-2.5,7.18.31,1.48,2.01,2.56,3.12,3.45,2.29,1.85,4.59,3.69,6.86,5.56.84.69,1.69,1.61,2.74,1.97.24.08.48.12.72.12,1.79,0,3.39-2.17,4.5-3.28,1.62-1.62,3.17-3.31,4.58-5.12.26-.33.51-.69.66-1.08.06-.14.1-.29.12-.45.22-1.44-1.11-2.88-1.99-3.87ZM37.15,94.41c.87-1.18,1.85-2.28,2.91-3.28.12-.12.25-.24.38-.36.4-.39,1.17-1.12,1.67-1.41.05.05.11.11.18.18,1.96,2.07,3.85,4.19,5.6,6.17.57.64,1.15,1.23,1.71,1.81.54.55,1.05,1.06,1.51,1.59l.11.12c.13.15.33.37.52.6l-16.55-.78s-.01-.02-.02-.02c-.26-1.57,1.42-3.86,1.98-4.62ZM47.88,105.37c-.25.25-.5.52-.75.8-.36.39-1.06,1.15-1.51,1.47-.26-.18-.59-.48-.84-.7-.23-.2-.45-.4-.67-.58-1.63-1.34-3.3-2.69-4.92-3.99l11.06.52c-.72.81-1.51,1.63-2.36,2.48Z"/><path class="cls-1" d="M41.07,70.56h0s0-.09,0-.14c0-.28-.01-.57-.04-.85-.51-7.37-6.63-13.19-14.13-13.19s-14.18,6.35-14.18,14.18,6.35,14.18,14.18,14.18,13.62-5.82,14.13-13.19c.03-.32.05-.65.05-.99h0ZM15.82,70.56c0-6.1,4.96-11.06,11.06-11.06,1.99,0,3.85.53,5.47,1.46-.31-.03-.62-.05-.94-.05-5.33,0-9.66,4.32-9.66,9.66s4.32,9.66,9.66,9.66c.32,0,.63-.02.94-.05-1.61.92-3.48,1.46-5.47,1.46-6.1,0-11.06-4.96-11.06-11.06Z"/></svg>