<?xml version="1.0" encoding="UTF-8"?><svg id="Layer_1" xmlns="http://www.w3.org/2000/svg" viewBox="0 0 50 42.16"><defs><style>.cls-1{fill:#f43737;stroke-width:0px;}</style></defs><path class="cls-1" d="M0,38.56c0-.55.1-1.04.29-1.48.19-.44.46-.82.79-1.14.33-.31.73-.56,1.18-.73s.94-.26,1.45-.26,1.02.09,1.49.26.86.4,1.18.69l-1.41,1.7c-.13-.17-.29-.29-.48-.38-.19-.09-.41-.13-.65-.13-.19,0-.37.03-.54.1-.17.07-.31.17-.44.29-.13.13-.22.28-.29.47-.07.18-.11.39-.11.61s.04.43.11.6c.07.18.17.33.3.46.13.13.27.23.44.29.17.07.34.1.53.1.26,0,.49-.05.68-.16.19-.11.34-.24.45-.39l1.41,1.69c-.31.31-.69.55-1.14.74-.45.18-.96.27-1.53.27-.51,0-1-.09-1.45-.26-.45-.17-.85-.42-1.18-.74-.33-.32-.6-.7-.79-1.14-.19-.44-.29-.93-.29-1.47Z"/><path class="cls-1" d="M12.43,39.38h-1.87v2.59h-2.29v-6.82h2.28v2.31h1.87v-2.31h2.3v6.82h-2.29v-2.59Z"/><path class="cls-1" d="M19.14,35.15h2.44l2.66,6.82h-2.49l-.36-1h-2.17l-.34,1h-2.43l2.69-6.82ZM20.32,37.53l-.56,1.69h1.11l-.55-1.69Z"/><path class="cls-1" d="M28,38.12l.11,3.85h-2.14v-6.82h3l1.23,3.67h.05l1.07-3.67h3.1v6.82h-2.23l.07-3.83h-.06s-1.27,3.83-1.27,3.83h-1.62l-1.25-3.85h-.05Z"/><path class="cls-1" d="M39.21,39.78v2.2h-2.28v-6.82h2.93c.35,0,.69.04,1.02.11.33.07.63.2.9.38.26.18.48.41.64.7.16.29.24.66.24,1.1s-.08.78-.24,1.08c-.16.3-.37.54-.63.72s-.56.32-.9.4c-.34.08-.68.13-1.04.13h-.65ZM39.21,36.93v1.1h.48c.17,0,.33-.04.48-.13.14-.09.22-.23.22-.44,0-.11-.02-.2-.06-.26-.04-.07-.09-.12-.16-.16-.07-.04-.14-.07-.23-.08-.08-.02-.17-.02-.25-.02h-.48Z"/><path class="cls-1" d="M47,42.16c-.28,0-.55-.02-.81-.07-.27-.05-.52-.12-.77-.21-.25-.09-.48-.2-.7-.33-.22-.12-.41-.26-.59-.42l1.4-1.52c.16.17.37.33.64.46.27.13.54.2.82.2.13,0,.25-.02.35-.07.11-.04.16-.13.16-.25,0-.06-.02-.12-.05-.16-.04-.04-.1-.09-.19-.14s-.21-.1-.37-.16c-.16-.06-.35-.13-.59-.2-.23-.08-.45-.17-.66-.28-.21-.11-.4-.24-.56-.39-.16-.15-.29-.34-.39-.55-.1-.22-.14-.47-.14-.78,0-.42.09-.78.26-1.08.17-.3.4-.54.67-.73.27-.19.58-.33.92-.41.34-.08.68-.13,1.01-.13.45,0,.91.09,1.37.26.47.17.87.42,1.23.75l-1.43,1.45c-.15-.19-.34-.34-.57-.44-.22-.1-.43-.15-.61-.15-.17,0-.3.02-.4.07-.1.05-.15.13-.15.24,0,.1.05.18.16.23.11.05.28.12.52.19.24.08.5.17.77.27.27.1.52.24.75.4.23.16.42.36.56.6.15.24.22.53.22.89,0,.41-.08.77-.25,1.07s-.38.56-.65.76c-.27.2-.57.35-.9.45s-.67.15-1.02.15Z"/><path class="cls-1" d="M32.99,17.29s0,0,0,0c0-2.33-1.89-4.22-4.22-4.22s-4.22,1.89-4.22,4.22,1.89,4.22,4.22,4.22,4.22-1.89,4.22-4.22c0,0,0,0,0,0ZM25.28,17.29c0-1.93,1.57-3.49,3.49-3.49.81,0,1.55.28,2.14.74-.25-.07-.52-.11-.8-.11-1.59,0-2.87,1.29-2.87,2.87s1.29,2.87,2.87,2.87c.28,0,.54-.04.8-.11-.59.46-1.34.74-2.14.74-1.93,0-3.49-1.57-3.49-3.49Z"/><path class="cls-1" d="M34.54,10.45s-.04.03-.06.04c-.01,0-.03.01-.04.02-.09.05-.18.09-.27.13-.04.02-.09.03-.13.05-.04.01-.08.03-.13.04-.02,0-.04.01-.06.02,1.55,1.94,2.47,4.39,2.47,7.06,0,6.25-5.08,11.33-11.33,11.33s-11.33-5.08-11.33-11.33c0-3.89,1.97-7.32,4.96-9.36-.05-.26-.09-.48-.11-.7,0-.03,0-.05,0-.08-3.34,2.14-5.55,5.88-5.55,10.14,0,6.65,5.39,12.05,12.05,12.05s12.05-5.39,12.05-12.05c0-2.77-.93-5.31-2.5-7.35Z"/><path class="cls-1" d="M19.61,7.04c.01.18.03.36.05.54,0,.07.02.14.03.21.02.16.05.31.08.47.2,1.03.55,1.94,1.02,2.67.29.45.53.76.96.78,0,0,.02,0,.02,0,.39,0,.71-.3.93-.59.84-1.12,2.03-1.97,3.38-2.37,1.01-.3,2.1-.34,3.14-.13s1.96.79,2.99,1.03c.1.02.21.05.31.06.12.02.24.02.36.02.03,0,.05,0,.08,0,.3,0,.57-.07.82-.17,0,0,0,0,.01,0,.21-.09.4-.22.56-.37.28-.28.48-.67.54-1.1.14-.93-.33-1.89-1.16-2.33-.32-.17-.67-.26-1.03-.26-.17,0-.35.02-.52.06l-1.14.26.65-.97c.34-.5.42-1.09.22-1.58-.21-.51-.72-.91-1.4-1.08-.27-.07-.56-.1-.84-.1-.72,0-1.44.22-2.02.63l-1.03.72.32-1.21c.11-.42.1-.8-.03-1.13-.13-.33-.45-.76-1.22-.97-.28-.08-.58-.11-.9-.11-.65,0-1.33.16-1.9.44-1.27.63-2.04,1.76-2.46,2.59-.61,1.2-.89,2.6-.81,3.99,0,0,0,.01,0,.02Z"/><path class="cls-1" d="M25.35,22.51c-.24-.27-.51-.52-.75-.79-.43-.49-.87-.98-1.32-1.45-.15-.16-.32-.29-.54-.29-.03,0-.06,0-.09,0-.35.06-.66.39-.91.62-.28.26-.54.55-.76.86-.34.46-.71,1.07-.58,1.67.07.34.47.59.72.8.53.43,1.06.86,1.59,1.29.2.16.39.37.64.46.06.02.11.03.17.03.41,0,.79-.5,1.04-.76.38-.38.74-.77,1.06-1.19.06-.08.12-.16.15-.25.01-.03.02-.07.03-.1.05-.33-.26-.67-.46-.9ZM21.57,21.89c.2-.27.43-.53.68-.76.03-.03.06-.05.09-.08.09-.09.27-.26.39-.33.01.01.03.03.04.04.45.48.89.97,1.3,1.43.13.15.27.29.4.42.12.13.24.25.35.37l.03.03s.08.09.12.14l-3.84-.18s0,0,0,0c-.06-.37.33-.89.46-1.07ZM24.06,24.43c-.06.06-.11.12-.17.18-.08.09-.24.27-.35.34-.06-.04-.14-.11-.2-.16-.05-.05-.1-.09-.16-.13-.38-.31-.77-.62-1.14-.93l2.56.12c-.17.19-.35.38-.55.58Z"/><path class="cls-1" d="M22.48,16.36h0s0-.02,0-.03c0-.07,0-.13,0-.2-.12-1.71-1.54-3.06-3.28-3.06s-3.29,1.47-3.29,3.29,1.47,3.29,3.29,3.29,3.16-1.35,3.28-3.06c0-.08.01-.15.01-.23h0ZM16.62,16.36c0-1.41,1.15-2.57,2.57-2.57.46,0,.89.12,1.27.34-.07,0-.14-.01-.22-.01-1.24,0-2.24,1-2.24,2.24s1,2.24,2.24,2.24c.07,0,.15,0,.22-.01-.37.21-.81.34-1.27.34-1.41,0-2.57-1.15-2.57-2.57Z"/></svg>