<svg width="265" height="323" viewBox="0 0 265 323" fill="none" xmlns="http://www.w3.org/2000/svg">
<g clip-path="url(#clip0_276_748)">
<path d="M264.84 183.532V182.827L264.776 182.635C264.68 180.744 264.521 178.821 264.329 176.93L264.265 176.225V175.969C264.041 174.046 263.786 172.091 263.498 170.169L263.434 169.656C260.079 147.768 251.196 126.873 237.711 109.248C240.587 105.178 242.536 100.339 243.335 95.179C245.572 80.6618 238.126 65.6959 225.248 58.7417C221.893 56.9151 218.346 55.6973 214.639 55.0884C215.374 50.1211 214.831 45.0898 212.978 40.5071C209.399 31.566 201.123 24.8682 190.354 22.1122C186.615 21.1508 182.749 20.6701 178.85 20.6701C173.993 20.6701 169.168 21.4072 164.566 22.8493C164.247 21.5033 163.832 20.1573 163.32 18.8434C161.371 13.9723 156.13 5.22352 142.741 1.53813C138.875 0.480587 134.753 -0.064209 130.439 -0.064209C122.035 -0.064209 113.311 1.98679 105.866 5.67217C90.1121 13.5236 80.7814 27.1436 75.7325 37.1742C69.9168 48.7431 66.7213 61.658 66.274 74.9574C25.1803 98.7682 0 142.16 0 190.134C0 263.393 59.4357 323 132.484 323C205.532 323 264.968 263.393 264.968 190.134V189.877C264.968 187.923 264.904 185.839 264.808 183.532H264.84Z" fill="white"/>
<path d="M211.795 185.07C211.795 161.901 193.07 143.121 169.935 143.121C146.8 143.121 128.074 161.901 128.074 185.102C128.074 208.304 146.8 227.084 169.935 227.084C193.07 227.084 211.764 208.304 211.795 185.134V185.07ZM135.264 185.07C135.264 165.906 150.826 150.3 169.935 150.3C177.956 150.3 185.337 153.056 191.217 157.638C188.692 156.901 186.04 156.485 183.292 156.485C167.57 156.485 154.788 169.271 154.788 185.07C154.788 200.869 167.538 213.656 183.292 213.656C186.04 213.656 188.692 213.24 191.217 212.502C185.337 217.085 177.956 219.841 169.935 219.841C150.826 219.841 135.264 204.234 135.264 185.07Z" fill="#F43737"/>
<path d="M227.23 116.971C227.006 117.099 226.814 117.227 226.622 117.323C226.495 117.388 226.367 117.452 226.239 117.516C225.376 117.964 224.45 118.413 223.523 118.766C223.107 118.926 222.66 119.118 222.245 119.278C221.829 119.439 221.414 119.567 220.998 119.695C220.807 119.759 220.583 119.823 220.391 119.855C235.73 139.147 244.964 163.535 244.964 190.07C244.964 252.241 194.54 302.811 132.548 302.811C70.5559 302.811 20.0675 252.273 20.0675 190.102C20.0675 151.421 39.5918 117.259 69.2458 96.9417C68.7664 94.3779 68.383 92.1026 68.0954 89.9234C68.0634 89.667 68.0315 89.4107 67.9995 89.1543C34.8625 110.465 12.9097 147.704 12.9097 190.102C12.9097 256.311 66.4337 309.989 132.452 309.989C198.47 309.989 251.994 256.311 251.994 190.102C251.994 162.574 242.728 137.225 227.166 116.971H227.23Z" fill="#F43737"/>
<path d="M78.96 83.0654C79.0558 84.86 79.2156 86.6867 79.4393 88.4813C79.5352 89.1863 79.631 89.8913 79.7588 90.5643C79.9825 92.1346 80.2701 93.6729 80.5577 95.1791C82.5389 105.402 85.99 114.503 90.7193 121.746C93.5952 126.2 95.9918 129.341 100.21 129.501H100.434C104.332 129.565 107.464 126.489 109.636 123.573C118.009 112.42 129.768 103.992 143.125 100.018C153.191 97.0378 163.959 96.5891 174.249 98.6722C184.538 100.755 193.677 106.524 203.903 108.927C204.925 109.151 205.948 109.44 207.002 109.568C208.185 109.728 209.367 109.824 210.549 109.824C210.805 109.824 211.061 109.824 211.316 109.792C214.256 109.696 217.004 109.119 219.465 108.062C219.529 108.062 219.56 108.03 219.592 107.998C221.701 107.068 223.587 105.851 225.153 104.312C227.965 101.524 229.882 97.6467 230.521 93.4165C231.959 84.187 227.198 74.6691 219.017 70.2466C215.854 68.5481 212.403 67.6508 208.76 67.6508C207.034 67.6508 205.309 67.8431 203.551 68.2597L192.271 70.8876L198.726 61.2735C202.049 56.3063 202.88 50.4096 200.899 45.5385C198.854 40.4431 193.773 36.5013 186.999 34.8028C184.283 34.1298 181.471 33.7773 178.627 33.7773C171.469 33.7773 164.343 35.9886 158.591 40.0265L148.366 47.1729L151.561 35.0913C152.647 30.9572 152.552 27.1757 151.241 23.8428C149.963 20.574 146.8 16.2477 139.131 14.1647C136.383 13.3955 133.379 13.011 130.215 13.011C123.76 13.011 117.05 14.5813 111.33 17.4334C98.708 23.7146 91.1028 34.931 86.9167 43.2311C80.9092 55.2167 78.1292 69.125 78.8961 82.9372C78.8961 83.0013 78.8961 83.0333 78.8961 83.0974L78.96 83.0654Z" fill="#F43737"/>
<path d="M135.967 236.986C133.602 234.262 130.918 231.827 128.554 229.135C124.272 224.264 119.958 219.425 115.484 214.714C114.014 213.143 112.289 211.797 110.148 211.797C109.86 211.797 109.573 211.797 109.253 211.861C105.77 212.438 102.702 215.739 100.242 218.047C97.4617 220.674 94.9373 223.527 92.6685 226.603C89.3133 231.186 85.6704 237.243 86.9167 243.171C87.6197 246.568 91.5501 249.068 94.1065 251.151C99.379 255.413 104.652 259.675 109.892 263.97C111.841 265.572 113.759 267.687 116.187 268.52C116.73 268.713 117.306 268.809 117.849 268.809C121.971 268.809 125.646 263.777 128.202 261.246C131.941 257.528 135.488 253.618 138.747 249.42C139.354 248.651 139.929 247.818 140.281 246.921C140.409 246.6 140.505 246.248 140.569 245.895C141.08 242.594 138.012 239.262 135.999 236.954L135.967 236.986ZM98.4203 230.897C100.402 228.173 102.67 225.642 105.131 223.302C105.418 223.046 105.706 222.757 105.994 222.469C106.92 221.572 108.71 219.873 109.828 219.232C109.956 219.328 110.084 219.489 110.244 219.649C114.749 224.424 119.095 229.327 123.121 233.878C124.431 235.352 125.774 236.73 127.052 238.044C128.298 239.294 129.448 240.511 130.535 241.729L130.79 242.018C131.11 242.37 131.557 242.883 131.973 243.396L93.8828 241.601C93.8828 241.601 93.8828 241.569 93.8508 241.537C93.2437 237.916 97.1102 232.628 98.3884 230.897H98.4203ZM123.121 256.15C122.546 256.727 121.971 257.336 121.396 257.977C120.565 258.874 118.967 260.637 117.913 261.374C117.306 260.957 116.539 260.252 115.963 259.771C115.452 259.323 114.941 258.874 114.43 258.426C110.659 255.317 106.824 252.208 103.118 249.196L128.554 250.414C126.892 252.273 125.102 254.195 123.121 256.15Z" fill="#F43737"/>
<path d="M107.464 175.809C107.464 175.809 107.464 175.585 107.464 175.488C107.464 174.815 107.432 174.175 107.368 173.534C106.185 156.517 92.0933 143.089 74.8378 143.089C57.5823 143.089 42.2121 157.735 42.2121 175.809C42.2121 193.883 56.8154 208.529 74.8378 208.529C92.8602 208.529 106.185 195.101 107.368 178.084C107.432 177.347 107.495 176.578 107.495 175.809H107.464ZM49.338 175.809C49.338 161.74 60.7458 150.268 74.8059 150.268C79.3754 150.268 83.6573 151.517 87.396 153.633C86.693 153.568 85.958 153.536 85.2231 153.536C72.9525 153.536 63.0146 163.503 63.0146 175.809C63.0146 188.115 72.9525 198.081 85.2231 198.081C85.958 198.081 86.661 198.049 87.396 197.985C83.6892 200.1 79.4073 201.35 74.8059 201.35C60.7778 201.35 49.338 189.91 49.338 175.809Z" fill="#F43737"/>
</g>
<defs>
<clipPath id="clip0_276_748">
<rect width="265" height="323" fill="white"/>
</clipPath>
</defs>
</svg>
