<svg width="31" height="24" viewBox="0 0 31 24" fill="none" xmlns="http://www.w3.org/2000/svg">
<path d="M0.0263522 14.4399C0.0498244 14.8105 0.0779906 15.1859 0.124935 15.5565C0.143713 15.7038 0.167185 15.8416 0.185963 15.9842C0.232908 16.3073 0.28924 16.6256 0.350268 16.9392C0.758684 19.0441 1.45816 20.9163 2.42052 22.4082C3.01201 23.3253 3.49554 23.9762 4.35462 24H4.40157C5.12451 24 5.70193 23.4821 6.12443 23.0259C6.46243 22.6648 6.74879 22.2847 7.02576 21.9188C7.39662 21.4294 7.74401 20.9733 8.15712 20.6169C9.29317 19.6476 10.5794 18.8731 11.9878 18.3124C13.598 17.671 15.3631 17.3336 17.0812 17.3336C18.2455 17.3336 19.3909 17.4856 20.4894 17.785C21.2452 17.9893 21.9682 18.3362 22.7287 18.702C23.5643 19.1012 24.4985 19.5336 25.5125 19.7711C25.719 19.8186 25.9303 19.8757 26.1462 19.9042C26.3856 19.9374 26.6297 19.9517 26.8691 19.9517C26.9208 19.9517 26.9724 19.9469 27.0288 19.9422C27.6249 19.9232 28.1883 19.8044 28.6906 19.5906C28.7 19.5906 28.7094 19.5811 28.7188 19.5763C29.1506 19.3863 29.5356 19.1344 29.8548 18.8161C30.4275 18.2411 30.8172 17.4429 30.9486 16.5686C31.2397 14.668 30.2726 12.7056 28.6014 11.7981C27.9536 11.4464 27.2494 11.2659 26.5124 11.2659C26.165 11.2659 25.8082 11.3087 25.4514 11.3894L23.1511 11.9264L24.4656 9.94496C25.1463 8.92338 25.3106 7.70699 24.9116 6.70441C24.4938 5.65433 23.4563 4.84657 22.0761 4.4902C21.5222 4.34765 20.9495 4.27638 20.3673 4.27638C18.9074 4.27638 17.4521 4.73253 16.2785 5.56405L14.1942 7.03702L14.8467 4.54722C15.072 3.69194 15.0486 2.91744 14.781 2.23322C14.5181 1.56325 13.8749 0.674718 12.3117 0.237577C11.7531 0.0807761 11.1381 0 10.4949 0C9.17581 0 7.80973 0.323104 6.64081 0.907543C4.06826 2.19996 2.5144 4.50921 1.66002 6.21976C0.434767 8.6858 -0.133259 11.551 0.0263522 14.3971C0.0263522 14.4067 0.0263522 14.4209 0.0263522 14.4304V14.4399Z" fill="#F43737"/>
</svg>
